<svg xmlns="http://www.w3.org/2000/svg" viewBox="0 0 32 32" fill="currentColor">
  <path d="M16 1c2 0 3.46 1.28 4.5 2.53C21.54 4.77 22 6.12 22 7.5c0 1.73-.63 3.2-1.5 4.5-.87 1.3-2.06 2.5-3.13 3.38-.53.43-1.03.79-1.37 1.06-.34-.27-.84-.63-1.37-1.06-1.07-.87-2.26-2.07-3.13-3.38C10.63 10.7 10 9.23 10 7.5c0-1.38.46-2.73 1.5-3.97C12.54 2.28 14 1 16 1zm0 18.5c2.76 0 5-2.24 5-5 0-1.4-.57-2.66-1.5-3.57-.93-.9-2.2-1.43-3.5-1.43s-2.57.53-3.5 1.43c-.93.91-1.5 2.17-1.5 3.57 0 2.76 2.24 5 5 5zM16 31c-3.87 0-7-3.13-7-7 0-2 .84-3.82 2.2-5.1.1 2.72 2.37 4.9 5.13 4.9h.17c2.67-.08 4.8-2.28 4.9-4.97C22.73 20.1 23 21.5 23 24c0 3.87-3.13 7-7 7z" />
</svg>
